<?xml version="1.0" encoding="UTF-8"?>
<svg id="katman_2" data-name="katman 2" xmlns="http://www.w3.org/2000/svg" xmlns:xlink="http://www.w3.org/1999/xlink" viewBox="0 0 262.97 63.25">
  <defs>
    <style>
      .cls-1 {
        letter-spacing: -.01em;
      }

      .cls-2 {
        fill: url(#Adsız_degrade_4);
      }

      .cls-3 {
        letter-spacing: -.04em;
      }

      .cls-4 {
        isolation: isolate;
        opacity: .74;
      }

      .cls-5 {
        fill: url(#Adsız_degrade_4-2);
      }

      .cls-6 {
        fill: #f0f0f0;
        font-family: Arial-Black, Arial;
        font-size: 40px;
        font-weight: 800;
      }
    </style>
    <linearGradient id="Adsız_degrade_4" data-name="Adsız degrade 4" x1="-294.83" y1="583.03" x2="-294.6" y2="583.03" gradientTransform="translate(8870.81 23351.95) scale(30 -40)" gradientUnits="userSpaceOnUse">
      <stop offset="0" stop-color="#007bff"/>
      <stop offset=".5" stop-color="#09f"/>
      <stop offset="1" stop-color="#0cf"/>
    </linearGradient>
    <linearGradient id="Adsız_degrade_4-2" data-name="Adsız degrade 4" x1="-298.38" y1="583.62" x2="-297.87" y2="583.62" gradientTransform="translate(13743.25 26880.37) scale(46 -46)" xlink:href="#Adsız_degrade_4"/>
  </defs>
  <g id="katman_1" data-name="katman 1">
    <path class="cls-2" d="M8.5,61.76c-.35,0-.71-.06-1.05-.19-1.55-.58-2.34-2.31-1.76-3.86L26.6,1.95c.44-1.17,1.56-1.95,2.81-1.95s2.37.78,2.81,1.95l20.91,55.76c.58,1.55-.2,3.28-1.76,3.86-1.55.58-3.28-.2-3.86-1.76L29.41,11.54,11.31,59.81c-.45,1.2-1.59,1.95-2.81,1.95Z"/>
    <g class="cls-4">
      <path class="cls-5" d="M29.41,63.25c-.31,0-.61,0-.92-.01l.05-1.5c.96.03,1.95,0,2.92-.06l.11,1.5c-.72.05-1.44.08-2.16.08ZM23.41,62.63c-1-.21-2-.47-2.98-.78l.46-1.43c.92.29,1.87.54,2.82.74l-.3,1.47ZM36.62,62.35l-.37-1.45c.94-.24,1.88-.53,2.79-.86l.52,1.41c-.96.35-1.95.66-2.94.91ZM15.7,59.87c-.9-.48-1.79-1.01-2.64-1.58l.83-1.25c.81.54,1.65,1.04,2.51,1.5l-.7,1.33ZM44.2,59.26l-.75-1.3c.84-.49,1.66-1.03,2.44-1.6l.89,1.21c-.83.6-1.69,1.17-2.57,1.69ZM9.07,55.08c-.74-.71-1.45-1.46-2.11-2.24l1.14-.97c.63.74,1.3,1.45,2,2.13l-1.04,1.08ZM50.63,54.21l-1.08-1.04c.67-.7,1.32-1.44,1.91-2.21l1.18.92c-.63.8-1.3,1.59-2.01,2.33ZM4,48.66c-.51-.88-.99-1.8-1.41-2.73l1.37-.62c.4.89.85,1.76,1.34,2.59l-1.29.76ZM55.42,47.58l-1.33-.7c.45-.86.87-1.75,1.23-2.65l1.39.56c-.38.95-.82,1.89-1.3,2.79ZM.89,41.09c-.25-.99-.45-2.01-.6-3.02l1.48-.21c.14.96.33,1.92.57,2.86l-1.45.37ZM58.2,39.88l-1.47-.31c.2-.95.35-1.92.45-2.88l1.49.15c-.1,1.02-.26,2.04-.47,3.04ZM1.5,33.01l-1.5-.04c.03-1.03.11-2.06.25-3.07l1.49.2c-.13.96-.21,1.94-.24,2.91ZM57.26,31.83c-.07-.97-.19-1.95-.36-2.9l1.48-.26c.18,1,.3,2.03.38,3.05l-1.5.11ZM2.8,25.35l-1.43-.46c.31-.97.68-1.94,1.09-2.88l1.37.6c-.39.89-.74,1.81-1.03,2.73ZM55.64,24.24c-.33-.91-.72-1.81-1.15-2.69l1.35-.66c.45.92.86,1.87,1.21,2.83l-1.41.51ZM6.16,18.36l-1.25-.83c.57-.85,1.19-1.68,1.84-2.47l1.15.96c-.62.75-1.21,1.53-1.74,2.34ZM51.98,17.39c-.57-.78-1.19-1.54-1.84-2.27l1.11-1c.69.76,1.34,1.56,1.94,2.39l-1.21.88ZM11.32,12.55l-.97-1.14c.78-.66,1.6-1.29,2.44-1.87l.85,1.24c-.8.55-1.58,1.14-2.32,1.77ZM46.58,11.81c-.76-.6-1.57-1.16-2.39-1.68l.79-1.27c.87.54,1.72,1.14,2.52,1.77l-.92,1.18ZM17.87,8.39l-.62-1.37c.93-.42,1.89-.8,2.86-1.12l.47,1.42c-.92.31-1.83.67-2.72,1.07ZM39.86,7.92c-.9-.36-1.83-.68-2.76-.95l.41-1.44c.98.28,1.96.62,2.91,1l-.56,1.39ZM25.32,6.2l-.22-1.48c1.01-.15,2.04-.24,3.06-.29l.06,1.5c-.97.04-1.95.13-2.91.27ZM32.32,6.05c-.96-.1-1.94-.15-2.92-.15v-1.5c1.02,0,2.06.05,3.07.16l-.15,1.49Z"/>
    </g>
    <g>
      <text class="cls-6" transform="translate(47.29 43.41)"><tspan class="cls-1" x="0" y="0">utom</tspan><tspan class="cls-3" x="108.87" y="0">e</tspan><tspan class="cls-1" x="133.96" y="0">xus</tspan></text>
      <text class="cls-6" transform="translate(47.29 43.41)"><tspan class="cls-1" x="0" y="0">utom</tspan><tspan class="cls-3" x="108.87" y="0">e</tspan><tspan class="cls-1" x="133.96" y="0">xus</tspan></text>
    </g>
  </g>
</svg>