<svg width="800" height="450" viewBox="0 0 800 450" fill="none" xmlns="http://www.w3.org/2000/svg">
  <!-- Background -->
  <rect width="800" height="450" fill="#0a0a0a"/>

  <!-- Gradient definitions -->
  <defs>
    <linearGradient id="grad1" x1="0%" y1="0%" x2="100%" y2="100%">
      <stop offset="0%" style="stop-color:#007bff;stop-opacity:0.3" />
      <stop offset="100%" style="stop-color:#0056b3;stop-opacity:0.1" />
    </linearGradient>
    <linearGradient id="grad2" x1="0%" y1="0%" x2="100%" y2="0%">
      <stop offset="0%" style="stop-color:#007bff;stop-opacity:0.6" />
      <stop offset="100%" style="stop-color:#00a3ff;stop-opacity:0.4" />
    </linearGradient>
  </defs>

  <!-- Workflow nodes -->
  <g opacity="0.9">
    <!-- Node 1 -->
    <circle cx="150" cy="225" r="50" fill="url(#grad1)" stroke="#007bff" stroke-width="2"/>
    <path d="M150 205 L150 245 M130 225 L170 225" stroke="#4da3ff" stroke-width="3" stroke-linecap="round"/>

    <!-- Node 2 -->
    <circle cx="350" cy="150" r="50" fill="url(#grad1)" stroke="#007bff" stroke-width="2"/>
    <circle cx="350" cy="150" r="25" fill="#007bff" opacity="0.4"/>
    <circle cx="350" cy="150" r="12" fill="#4da3ff"/>

    <!-- Node 3 -->
    <circle cx="350" cy="300" r="50" fill="url(#grad1)" stroke="#007bff" stroke-width="2"/>
    <rect x="330" y="280" width="40" height="40" rx="5" fill="none" stroke="#4da3ff" stroke-width="2"/>
    <path d="M340 300 L350 310 L360 290" stroke="#4da3ff" stroke-width="3" stroke-linecap="round" stroke-linejoin="round" fill="none"/>

    <!-- Node 4 -->
    <circle cx="550" cy="225" r="50" fill="url(#grad1)" stroke="#007bff" stroke-width="2"/>
    <polygon points="550,205 570,225 550,245 530,225" fill="none" stroke="#4da3ff" stroke-width="2.5"/>
    <circle cx="550" cy="225" r="8" fill="#4da3ff"/>

    <!-- Node 5 -->
    <circle cx="700" cy="225" r="50" fill="url(#grad1)" stroke="#007bff" stroke-width="2"/>
    <path d="M680 225 L695 240 L720 215" stroke="#4da3ff" stroke-width="3" stroke-linecap="round" stroke-linejoin="round" fill="none"/>
  </g>

  <!-- Connecting lines with animation effect -->
  <g stroke="url(#grad2)" stroke-width="3" fill="none" opacity="0.7">
    <path d="M200 225 L300 165" stroke-dasharray="5,5">
      <animate attributeName="stroke-dashoffset" from="0" to="10" dur="1s" repeatCount="indefinite"/>
    </path>
    <path d="M200 225 L300 285" stroke-dasharray="5,5">
      <animate attributeName="stroke-dashoffset" from="0" to="10" dur="1s" repeatCount="indefinite"/>
    </path>
    <path d="M400 165 L500 210" stroke-dasharray="5,5">
      <animate attributeName="stroke-dashoffset" from="0" to="10" dur="1s" repeatCount="indefinite"/>
    </path>
    <path d="M400 285 L500 240" stroke-dasharray="5,5">
      <animate attributeName="stroke-dashoffset" from="0" to="10" dur="1s" repeatCount="indefinite"/>
    </path>
    <path d="M600 225 L650 225" stroke-dasharray="5,5">
      <animate attributeName="stroke-dashoffset" from="0" to="10" dur="1s" repeatCount="indefinite"/>
    </path>
  </g>

  <!-- Accent particles -->
  <g fill="#007bff" opacity="0.4">
    <circle cx="250" cy="100" r="4">
      <animate attributeName="opacity" values="0.4;0.8;0.4" dur="2s" repeatCount="indefinite"/>
    </circle>
    <circle cx="450" cy="380" r="4">
      <animate attributeName="opacity" values="0.4;0.8;0.4" dur="2.5s" repeatCount="indefinite"/>
    </circle>
    <circle cx="600" cy="100" r="4">
      <animate attributeName="opacity" values="0.4;0.8;0.4" dur="3s" repeatCount="indefinite"/>
    </circle>
  </g>
</svg>
