<?xml version="1.0" encoding="UTF-8"?>
<svg id="katman_2" data-name="katman 2" xmlns="http://www.w3.org/2000/svg" xmlns:xlink="http://www.w3.org/1999/xlink" viewBox="0 0 256.21 63.25">
  <defs>
    <style>
      .cls-1 {
        fill: url(#Adsız_degrade_4);
      }

      .cls-2 {
        fill: #f0f0f0;
      }

      .cls-3 {
        isolation: isolate;
        opacity: .74;
      }

      .cls-4 {
        fill: url(#Adsız_degrade_4-2);
      }
    </style>
    <linearGradient id="Adsız_degrade_4" data-name="Adsız degrade 4" x1="-294.83" y1="583.03" x2="-294.6" y2="583.03" gradientTransform="translate(8870.81 23351.95) scale(30 -40)" gradientUnits="userSpaceOnUse">
      <stop offset="0" stop-color="#007bff"/>
      <stop offset=".5" stop-color="#09f"/>
      <stop offset="1" stop-color="#0cf"/>
    </linearGradient>
    <linearGradient id="Adsız_degrade_4-2" data-name="Adsız degrade 4" x1="-298.38" y1="583.62" x2="-297.87" y2="583.62" gradientTransform="translate(13743.25 26880.37) scale(46 -46)" xlink:href="#Adsız_degrade_4"/>
  </defs>
  <g id="katman_1" data-name="katman 1">
    <path class="cls-1" d="M8.5,61.76c-.35,0-.71-.06-1.05-.19-1.55-.58-2.34-2.31-1.76-3.86L26.6,1.95c.44-1.17,1.56-1.95,2.81-1.95s2.37.78,2.81,1.95l20.91,55.76c.58,1.55-.2,3.28-1.76,3.86-1.55.58-3.28-.2-3.86-1.76L29.41,11.54,11.31,59.81c-.45,1.2-1.59,1.95-2.81,1.95Z"/>
    <g class="cls-3">
      <path class="cls-4" d="M29.41,63.25c-.31,0-.61,0-.92-.01l.05-1.5c.96.03,1.95,0,2.92-.06l.11,1.5c-.72.05-1.44.08-2.16.08ZM23.41,62.63c-1-.21-2-.47-2.98-.78l.46-1.43c.92.29,1.87.54,2.82.74l-.3,1.47ZM36.62,62.35l-.37-1.45c.94-.24,1.88-.53,2.79-.86l.52,1.41c-.96.35-1.95.66-2.94.91ZM15.7,59.87c-.9-.48-1.79-1.01-2.64-1.58l.83-1.25c.81.54,1.65,1.04,2.51,1.5l-.7,1.33ZM44.2,59.26l-.75-1.3c.84-.49,1.66-1.03,2.44-1.6l.89,1.21c-.83.6-1.69,1.17-2.57,1.69ZM9.07,55.08c-.74-.71-1.45-1.46-2.11-2.24l1.14-.97c.63.74,1.3,1.45,2,2.13l-1.04,1.08ZM50.63,54.21l-1.08-1.04c.67-.7,1.32-1.44,1.91-2.21l1.18.92c-.63.8-1.3,1.59-2.01,2.33ZM4,48.66c-.51-.88-.99-1.8-1.41-2.73l1.37-.62c.4.89.85,1.76,1.34,2.59l-1.29.76ZM55.42,47.58l-1.33-.7c.45-.86.87-1.75,1.23-2.65l1.39.56c-.38.95-.82,1.89-1.3,2.79ZM.89,41.09c-.25-.99-.45-2.01-.6-3.02l1.48-.21c.14.96.33,1.92.57,2.86l-1.45.37ZM58.2,39.88l-1.47-.31c.2-.95.35-1.92.45-2.88l1.49.15c-.1,1.02-.26,2.04-.47,3.04ZM1.5,33.01l-1.5-.04c.03-1.03.11-2.06.25-3.07l1.49.2c-.13.96-.21,1.94-.24,2.91ZM57.26,31.83c-.07-.97-.19-1.95-.36-2.9l1.48-.26c.18,1,.3,2.03.38,3.05l-1.5.11ZM2.8,25.35l-1.43-.46c.31-.97.68-1.94,1.09-2.88l1.37.6c-.39.89-.74,1.81-1.03,2.73ZM55.64,24.24c-.33-.91-.72-1.81-1.15-2.69l1.35-.66c.45.92.86,1.87,1.21,2.83l-1.41.51ZM6.16,18.36l-1.25-.83c.57-.85,1.19-1.68,1.84-2.47l1.15.96c-.62.75-1.21,1.53-1.74,2.34ZM51.98,17.39c-.57-.78-1.19-1.54-1.84-2.27l1.11-1c.69.76,1.34,1.56,1.94,2.39l-1.21.88ZM11.32,12.55l-.97-1.14c.78-.66,1.6-1.29,2.44-1.87l.85,1.24c-.8.55-1.58,1.14-2.32,1.77ZM46.58,11.81c-.76-.6-1.57-1.16-2.39-1.68l.79-1.27c.87.54,1.72,1.14,2.52,1.77l-.92,1.18ZM17.87,8.39l-.62-1.37c.93-.42,1.89-.8,2.86-1.12l.47,1.42c-.92.31-1.83.67-2.72,1.07ZM39.86,7.92c-.9-.36-1.83-.68-2.76-.95l.41-1.44c.98.28,1.96.62,2.91,1l-.56,1.39ZM25.32,6.2l-.22-1.48c1.01-.15,2.04-.24,3.06-.29l.06,1.5c-.97.04-1.95.13-2.91.27ZM32.32,6.05c-.96-.1-1.94-.15-2.92-.15v-1.5c1.02,0,2.06.05,3.07.16l-.15,1.49Z"/>
    </g>
    <g>
      <g>
        <path class="cls-2" d="M71.51,43.41h-7.41v-3.36c-1.1,1.38-2.22,2.36-3.34,2.95-1.12.59-2.51.88-4.14.88-2.18,0-3.9-.65-5.14-1.96-1.24-1.31-1.86-3.32-1.86-6.04v-13.2h7.98v11.41c0,1.3.24,2.23.72,2.77.48.55,1.16.82,2.03.82.95,0,1.73-.36,2.33-1.09.6-.73.91-2.04.91-3.93v-9.98h7.94v20.74Z"/>
        <path class="cls-2" d="M85.34,14.77v7.89h4.37v5.82h-4.37v7.35c0,.88.08,1.47.25,1.75.26.44.71.66,1.36.66.58,0,1.4-.17,2.46-.51l.58,5.49c-1.96.43-3.8.64-5.5.64-1.98,0-3.43-.25-4.37-.76s-1.63-1.28-2.08-2.31c-.45-1.03-.67-2.71-.67-5.02v-7.3h-2.93v-5.82h2.93v-3.81l7.96-4.08Z"/>
        <path class="cls-2" d="M91.96,33.09c0-3.16,1.07-5.77,3.2-7.82,2.13-2.05,5.01-3.08,8.64-3.08,4.15,0,7.28,1.2,9.4,3.61,1.7,1.94,2.55,4.33,2.55,7.17,0,3.19-1.06,5.8-3.17,7.84-2.11,2.04-5.03,3.06-8.77,3.06-3.33,0-6.02-.85-8.07-2.54-2.52-2.1-3.78-4.84-3.78-8.24ZM99.92,33.07c0,1.85.37,3.22,1.12,4.1s1.69,1.33,2.82,1.33,2.08-.44,2.82-1.31,1.1-2.27,1.1-4.2c0-1.8-.37-3.13-1.11-4.01s-1.66-1.32-2.75-1.32c-1.16,0-2.11.45-2.87,1.34s-1.13,2.25-1.13,4.07Z"/>
        <path class="cls-2" d="M119.07,22.66h7.41v3.03c1.07-1.26,2.15-2.16,3.23-2.7,1.09-.53,2.4-.8,3.93-.8,1.65,0,2.96.29,3.93.88s1.75,1.46,2.36,2.62c1.25-1.35,2.38-2.28,3.41-2.76,1.03-.49,2.29-.73,3.8-.73,2.22,0,3.95.66,5.2,1.98s1.87,3.39,1.87,6.2v13.03h-7.96v-11.82c0-.94-.18-1.63-.54-2.09-.53-.72-1.19-1.07-1.98-1.07-.93,0-1.68.34-2.25,1.02s-.85,1.76-.85,3.26v10.7h-7.96v-11.43c0-.91-.05-1.53-.16-1.86-.17-.52-.46-.94-.88-1.26-.42-.32-.91-.48-1.47-.48-.91,0-1.66.34-2.25,1.04s-.88,1.82-.88,3.4v10.59h-7.96v-20.74Z"/>
        <path class="cls-2" d="M181.38,35.01h-15.91c.14,1.28.49,2.23,1.03,2.85.77.9,1.77,1.35,3,1.35.78,0,1.52-.2,2.22-.59.43-.25.89-.68,1.38-1.31l7.82.72c-1.2,2.08-2.64,3.58-4.33,4.48-1.69.91-4.11,1.36-7.27,1.36-2.74,0-4.9-.39-6.47-1.16s-2.88-2-3.91-3.69c-1.03-1.69-1.55-3.67-1.55-5.95,0-3.24,1.04-5.87,3.11-7.87,2.07-2,4.94-3.01,8.59-3.01,2.96,0,5.3.45,7.02,1.35s3.02,2.2,3.92,3.91c.9,1.71,1.34,3.93,1.34,6.66v.9ZM173.31,31.2c-.16-1.54-.57-2.64-1.24-3.3-.67-.66-1.55-1-2.64-1-1.26,0-2.27.5-3.02,1.5-.48.62-.79,1.56-.92,2.79h7.82Z"/>
        <path class="cls-2" d="M181.66,22.66h9.42l3.29,5.78,3.83-5.78h8.76l-7.07,9.88,7.57,10.86h-9.26l-3.83-6.68-4.5,6.68h-8.6l7.52-10.86-7.13-9.88Z"/>
        <path class="cls-2" d="M231.34,43.41h-7.41v-3.36c-1.11,1.38-2.22,2.36-3.34,2.95-1.12.59-2.51.88-4.14.88-2.18,0-3.9-.65-5.14-1.96s-1.86-3.32-1.86-6.04v-13.2h7.98v11.41c0,1.3.24,2.23.72,2.77.48.55,1.16.82,2.03.82.95,0,1.73-.36,2.33-1.09s.91-2.04.91-3.93v-9.98h7.94v20.74Z"/>
        <path class="cls-2" d="M234.19,37.65l7.88-.74c.32.94.78,1.61,1.37,2.01.58.4,1.36.61,2.34.61,1.07,0,1.89-.23,2.48-.68.46-.34.68-.76.68-1.27,0-.57-.3-1.01-.9-1.33-.43-.22-1.57-.49-3.41-.82-2.76-.48-4.67-.93-5.74-1.34s-1.98-1.1-2.71-2.08-1.1-2.09-1.1-3.34c0-1.37.4-2.54,1.19-3.53.79-.99,1.88-1.73,3.28-2.21,1.39-.49,3.26-.73,5.6-.73,2.47,0,4.29.19,5.47.57,1.18.38,2.16.96,2.94,1.76.79.79,1.44,1.87,1.96,3.22l-7.53.74c-.19-.66-.52-1.15-.97-1.46-.62-.42-1.38-.62-2.26-.62s-1.55.16-1.96.48c-.41.32-.61.71-.61,1.16,0,.51.26.89.78,1.15.52.26,1.65.49,3.39.7,2.64.3,4.6.71,5.89,1.25,1.29.53,2.27,1.29,2.96,2.28.68.99,1.02,2.08,1.02,3.26s-.36,2.36-1.08,3.49-1.86,2.03-3.41,2.7-3.67,1-6.35,1c-3.78,0-6.48-.54-8.08-1.62s-2.64-2.62-3.09-4.61Z"/>
      </g>
      <g>
        <path class="cls-2" d="M71.51,43.41h-7.41v-3.36c-1.1,1.38-2.22,2.36-3.34,2.95-1.12.59-2.51.88-4.14.88-2.18,0-3.9-.65-5.14-1.96-1.24-1.31-1.86-3.32-1.86-6.04v-13.2h7.98v11.41c0,1.3.24,2.23.72,2.77.48.55,1.16.82,2.03.82.95,0,1.73-.36,2.33-1.09.6-.73.91-2.04.91-3.93v-9.98h7.94v20.74Z"/>
        <path class="cls-2" d="M85.34,14.77v7.89h4.37v5.82h-4.37v7.35c0,.88.08,1.47.25,1.75.26.44.71.66,1.36.66.58,0,1.4-.17,2.46-.51l.58,5.49c-1.96.43-3.8.64-5.5.64-1.98,0-3.43-.25-4.37-.76s-1.63-1.28-2.08-2.31c-.45-1.03-.67-2.71-.67-5.02v-7.3h-2.93v-5.82h2.93v-3.81l7.96-4.08Z"/>
        <path class="cls-2" d="M91.96,33.09c0-3.16,1.07-5.77,3.2-7.82,2.13-2.05,5.01-3.08,8.64-3.08,4.15,0,7.28,1.2,9.4,3.61,1.7,1.94,2.55,4.33,2.55,7.17,0,3.19-1.06,5.8-3.17,7.84-2.11,2.04-5.03,3.06-8.77,3.06-3.33,0-6.02-.85-8.07-2.54-2.52-2.1-3.78-4.84-3.78-8.24ZM99.92,33.07c0,1.85.37,3.22,1.12,4.1s1.69,1.33,2.82,1.33,2.08-.44,2.82-1.31,1.1-2.27,1.1-4.2c0-1.8-.37-3.13-1.11-4.01s-1.66-1.32-2.75-1.32c-1.16,0-2.11.45-2.87,1.34s-1.13,2.25-1.13,4.07Z"/>
        <path class="cls-2" d="M119.07,22.66h7.41v3.03c1.07-1.26,2.15-2.16,3.23-2.7,1.09-.53,2.4-.8,3.93-.8,1.65,0,2.96.29,3.93.88s1.75,1.46,2.36,2.62c1.25-1.35,2.38-2.28,3.41-2.76,1.03-.49,2.29-.73,3.8-.73,2.22,0,3.95.66,5.2,1.98s1.87,3.39,1.87,6.2v13.03h-7.96v-11.82c0-.94-.18-1.63-.54-2.09-.53-.72-1.19-1.07-1.98-1.07-.93,0-1.68.34-2.25,1.02s-.85,1.76-.85,3.26v10.7h-7.96v-11.43c0-.91-.05-1.53-.16-1.86-.17-.52-.46-.94-.88-1.26-.42-.32-.91-.48-1.47-.48-.91,0-1.66.34-2.25,1.04s-.88,1.82-.88,3.4v10.59h-7.96v-20.74Z"/>
        <path class="cls-2" d="M181.38,35.01h-15.91c.14,1.28.49,2.23,1.03,2.85.77.9,1.77,1.35,3,1.35.78,0,1.52-.2,2.22-.59.43-.25.89-.68,1.38-1.31l7.82.72c-1.2,2.08-2.64,3.58-4.33,4.48-1.69.91-4.11,1.36-7.27,1.36-2.74,0-4.9-.39-6.47-1.16s-2.88-2-3.91-3.69c-1.03-1.69-1.55-3.67-1.55-5.95,0-3.24,1.04-5.87,3.11-7.87,2.07-2,4.94-3.01,8.59-3.01,2.96,0,5.3.45,7.02,1.35s3.02,2.2,3.92,3.91c.9,1.71,1.34,3.93,1.34,6.66v.9ZM173.31,31.2c-.16-1.54-.57-2.64-1.24-3.3-.67-.66-1.55-1-2.64-1-1.26,0-2.27.5-3.02,1.5-.48.62-.79,1.56-.92,2.79h7.82Z"/>
        <path class="cls-2" d="M181.66,22.66h9.42l3.29,5.78,3.83-5.78h8.76l-7.07,9.88,7.57,10.86h-9.26l-3.83-6.68-4.5,6.68h-8.6l7.52-10.86-7.13-9.88Z"/>
        <path class="cls-2" d="M231.34,43.41h-7.41v-3.36c-1.11,1.38-2.22,2.36-3.34,2.95-1.12.59-2.51.88-4.14.88-2.18,0-3.9-.65-5.14-1.96s-1.86-3.32-1.86-6.04v-13.2h7.98v11.41c0,1.3.24,2.23.72,2.77.48.55,1.16.82,2.03.82.95,0,1.73-.36,2.33-1.09s.91-2.04.91-3.93v-9.98h7.94v20.74Z"/>
        <path class="cls-2" d="M234.19,37.65l7.88-.74c.32.94.78,1.61,1.37,2.01.58.4,1.36.61,2.34.61,1.07,0,1.89-.23,2.48-.68.46-.34.68-.76.68-1.27,0-.57-.3-1.01-.9-1.33-.43-.22-1.57-.49-3.41-.82-2.76-.48-4.67-.93-5.74-1.34s-1.98-1.1-2.71-2.08-1.1-2.09-1.1-3.34c0-1.37.4-2.54,1.19-3.53.79-.99,1.88-1.73,3.28-2.21,1.39-.49,3.26-.73,5.6-.73,2.47,0,4.29.19,5.47.57,1.18.38,2.16.96,2.94,1.76.79.79,1.44,1.87,1.96,3.22l-7.53.74c-.19-.66-.52-1.15-.97-1.46-.62-.42-1.38-.62-2.26-.62s-1.55.16-1.96.48c-.41.32-.61.71-.61,1.16,0,.51.26.89.78,1.15.52.26,1.65.49,3.39.7,2.64.3,4.6.71,5.89,1.25,1.29.53,2.27,1.29,2.96,2.28.68.99,1.02,2.08,1.02,3.26s-.36,2.36-1.08,3.49-1.86,2.03-3.41,2.7-3.67,1-6.35,1c-3.78,0-6.48-.54-8.08-1.62s-2.64-2.62-3.09-4.61Z"/>
      </g>
    </g>
  </g>
</svg>