<?xml version="1.0" encoding="UTF-8"?>
<svg id="katman_2" data-name="katman 2" xmlns="http://www.w3.org/2000/svg" xmlns:xlink="http://www.w3.org/1999/xlink" viewBox="0 0 47.43 51.48">
  <defs>
    <style>
      .cls-1 {
        fill: url(#Adsız_degrade_4);
      }

      .cls-2 {
        isolation: isolate;
        opacity: .74;
      }

      .cls-3 {
        fill: url(#Adsız_degrade_4-2);
      }
    </style>
    <linearGradient id="Adsız_degrade_4" data-name="Adsız degrade 4" x1="-117.07" y1="570.44" x2="-116.88" y2="570.44" gradientTransform="translate(3532.99 22843.09) scale(30 -40)" gradientUnits="userSpaceOnUse">
      <stop offset="0" stop-color="#007bff"/>
      <stop offset=".5" stop-color="#09f"/>
      <stop offset="1" stop-color="#0cf"/>
    </linearGradient>
    <linearGradient id="Adsız_degrade_4-2" data-name="Adsız degrade 4" x1="-118.4" y1="571.07" x2="-117.98" y2="571.07" gradientTransform="translate(5460.44 26297.04) scale(46 -46)" xlink:href="#Adsız_degrade_4"/>
  </defs>
  <g id="katman_1" data-name="katman 1">
    <path class="cls-1" d="M40.48,50.73c-1.21,0-2.36-.74-2.81-1.95L23.71,11.54l-13.96,37.24c-.58,1.55-2.31,2.34-3.86,1.76-1.55-.58-2.34-2.31-1.76-3.86L20.9,1.95c.44-1.17,1.56-1.95,2.81-1.95s2.37.78,2.81,1.95l16.77,44.73c.58,1.55-.2,3.28-1.76,3.86-.35.13-.7.19-1.05.19Z"/>
    <g class="cls-2">
      <path class="cls-3" d="M23.71,51.48c-.93,0-1.87-.05-2.79-.16l.17-1.49c.86.1,1.75.15,2.62.15h.28s.02,1.5.02,1.5h-.29ZM29.11,50.86l-.34-1.46c.94-.22,1.87-.5,2.77-.84l.53,1.4c-.96.36-1.96.67-2.96.9ZM15.89,50.16c-.97-.34-1.93-.75-2.85-1.21l.67-1.34c.86.43,1.76.81,2.67,1.13l-.49,1.42ZM36.67,47.63l-.82-1.26c.81-.53,1.59-1.11,2.32-1.74l.98,1.14c-.78.67-1.61,1.29-2.48,1.85ZM8.71,46.15c-.8-.65-1.56-1.36-2.27-2.11l1.09-1.03c.66.7,1.38,1.37,2.12,1.97l-.95,1.16ZM42.67,42.02l-1.2-.9c.58-.77,1.12-1.58,1.59-2.42l1.3.74c-.51.9-1.08,1.77-1.7,2.59ZM3.33,39.94c-.53-.88-1.01-1.81-1.42-2.75l1.38-.6c.38.88.83,1.75,1.33,2.58l-1.29.77ZM46.41,34.7l-1.43-.44c.28-.92.51-1.87.67-2.82l1.48.25c-.17,1.02-.41,2.03-.71,3.01ZM.39,32.27c-.2-1.01-.33-2.04-.39-3.07l1.5-.09c.06.96.18,1.93.36,2.88l-1.47.29ZM45.93,26.62c-.05-.96-.16-1.93-.33-2.88l1.48-.27c.18,1.01.3,2.04.35,3.07l-1.5.07ZM1.72,24.29l-1.48-.23c.16-1.02.38-2.03.67-3.02l1.44.42c-.27.93-.48,1.88-.63,2.83ZM44.23,19.12c-.37-.89-.81-1.76-1.29-2.59l1.29-.76c.52.89.99,1.82,1.38,2.77l-1.38.58ZM4.21,17l-1.31-.72c.5-.9,1.06-1.78,1.67-2.61l1.21.89c-.57.78-1.1,1.6-1.56,2.44ZM40.06,12.65c-.65-.71-1.36-1.38-2.1-2l.96-1.15c.79.66,1.54,1.38,2.24,2.13l-1.1,1.02ZM9.03,11l-.99-1.13c.77-.68,1.6-1.31,2.45-1.89l.83,1.25c-.8.54-1.57,1.13-2.3,1.77ZM33.94,7.97c-.86-.45-1.75-.84-2.66-1.17l.51-1.41c.97.35,1.92.77,2.84,1.24l-.69,1.33ZM15.61,7l-.55-1.4c.96-.37,1.95-.69,2.95-.94l.36,1.46c-.94.23-1.87.53-2.76.88ZM26.6,5.67c-.97-.13-1.94-.17-2.94-.19-.17,0-.34,0-.51,0l-.04-1.5c.2,0,.4,0,.59,0,1.03,0,2.07.07,3.09.2l-.19,1.49Z"/>
    </g>
  </g>
</svg>